<svg width="304" height="31" viewBox="0 0 304 31" fill="none" xmlns="http://www.w3.org/2000/svg">
<path d="M5.46 26.247H14.43V30.576H0V3.354H5.46V26.247Z" fill="#212122"/>
<path d="M20.6694 6.396C19.7074 6.396 18.9014 6.097 18.2514 5.499C17.6274 4.875 17.3154 4.108 17.3154 3.198C17.3154 2.288 17.6274 1.534 18.2514 0.936C18.9014 0.312 19.7074 0 20.6694 0C21.6314 0 22.4244 0.312 23.0484 0.936C23.6984 1.534 24.0234 2.288 24.0234 3.198C24.0234 4.108 23.6984 4.875 23.0484 5.499C22.4244 6.097 21.6314 6.396 20.6694 6.396ZM23.3604 8.97V30.576H17.9004V8.97H23.3604Z" fill="#212122"/>
<path d="M37.7639 25.545L43.2239 8.97H49.0349L41.0399 30.576H34.4099L26.4539 8.97H32.3039L37.7639 25.545Z" fill="#212122"/>
<path d="M72.1866 19.305C72.1866 20.085 72.1346 20.787 72.0306 21.411H56.2356C56.3656 22.971 56.9116 24.193 57.8736 25.077C58.8356 25.961 60.0186 26.403 61.4226 26.403C63.4506 26.403 64.8936 25.532 65.7516 23.79H71.6406C71.0166 25.87 69.8206 27.586 68.0526 28.938C66.2846 30.264 64.1136 30.927 61.5396 30.927C59.4596 30.927 57.5876 30.472 55.9236 29.562C54.2856 28.626 52.9986 27.313 52.0626 25.623C51.1526 23.933 50.6976 21.983 50.6976 19.773C50.6976 17.537 51.1526 15.574 52.0626 13.884C52.9726 12.194 54.2466 10.894 55.8846 9.984C57.5226 9.074 59.4076 8.619 61.5396 8.619C63.5936 8.619 65.4266 9.061 67.0386 9.945C68.6766 10.829 69.9376 12.09 70.8216 13.728C71.7316 15.34 72.1866 17.199 72.1866 19.305ZM66.5316 17.745C66.5056 16.341 65.9986 15.223 65.0106 14.391C64.0226 13.533 62.8136 13.104 61.3836 13.104C60.0316 13.104 58.8876 13.52 57.9516 14.352C57.0416 15.158 56.4826 16.289 56.2746 17.745H66.5316Z" fill="#212122"/>
<path d="M88.1449 8.658C90.7189 8.658 92.7989 9.477 94.3849 11.115C95.9709 12.727 96.7639 14.989 96.7639 17.901V30.576H91.3039V18.642C91.3039 16.926 90.8749 15.613 90.0169 14.703C89.1589 13.767 87.9889 13.299 86.5069 13.299C84.9989 13.299 83.8029 13.767 82.9189 14.703C82.0609 15.613 81.6319 16.926 81.6319 18.642V30.576H76.1719V8.97H81.6319V11.661C82.3599 10.725 83.2829 9.997 84.4009 9.477C85.5449 8.931 86.7929 8.658 88.1449 8.658Z" fill="#212122"/>
<path d="M120.648 30.849C118.75 30.849 117.034 30.524 115.5 29.874C113.992 29.224 112.796 28.288 111.912 27.066C111.028 25.844 110.573 24.401 110.547 22.737H116.397C116.475 23.855 116.865 24.739 117.567 25.389C118.295 26.039 119.283 26.364 120.531 26.364C121.805 26.364 122.806 26.065 123.534 25.467C124.262 24.843 124.626 24.037 124.626 23.049C124.626 22.243 124.379 21.58 123.885 21.06C123.391 20.54 122.767 20.137 122.013 19.851C121.285 19.539 120.271 19.201 118.971 18.837C117.203 18.317 115.76 17.81 114.642 17.316C113.55 16.796 112.601 16.029 111.795 15.015C111.015 13.975 110.625 12.597 110.625 10.881C110.625 9.269 111.028 7.865 111.834 6.669C112.64 5.473 113.771 4.563 115.227 3.939C116.683 3.289 118.347 2.964 120.219 2.964C123.027 2.964 125.302 3.653 127.044 5.031C128.812 6.383 129.787 8.281 129.969 10.725H123.963C123.911 9.789 123.508 9.022 122.754 8.424C122.026 7.8 121.051 7.488 119.829 7.488C118.763 7.488 117.905 7.761 117.255 8.307C116.631 8.853 116.319 9.646 116.319 10.686C116.319 11.414 116.553 12.025 117.021 12.519C117.515 12.987 118.113 13.377 118.815 13.689C119.543 13.975 120.557 14.313 121.857 14.703C123.625 15.223 125.068 15.743 126.186 16.263C127.304 16.783 128.266 17.563 129.072 18.603C129.878 19.643 130.281 21.008 130.281 22.698C130.281 24.154 129.904 25.506 129.15 26.754C128.396 28.002 127.291 29.003 125.835 29.757C124.379 30.485 122.65 30.849 120.648 30.849Z" fill="#212122"/>
<path d="M141.372 13.455V23.907C141.372 24.635 141.541 25.168 141.879 25.506C142.243 25.818 142.841 25.974 143.673 25.974H146.208V30.576H142.776C138.174 30.576 135.873 28.34 135.873 23.868V13.455H133.299V8.97H135.873V3.627H141.372V8.97H146.208V13.455H141.372Z" fill="#212122"/>
<path d="M159.729 30.927C157.649 30.927 155.777 30.472 154.113 29.562C152.449 28.626 151.136 27.313 150.174 25.623C149.238 23.933 148.77 21.983 148.77 19.773C148.77 17.563 149.251 15.613 150.213 13.923C151.201 12.233 152.54 10.933 154.23 10.023C155.92 9.087 157.805 8.619 159.885 8.619C161.965 8.619 163.85 9.087 165.54 10.023C167.23 10.933 168.556 12.233 169.518 13.923C170.506 15.613 171 17.563 171 19.773C171 21.983 170.493 23.933 169.479 25.623C168.491 27.313 167.139 28.626 165.423 29.562C163.733 30.472 161.835 30.927 159.729 30.927ZM159.729 26.169C160.717 26.169 161.64 25.935 162.498 25.467C163.382 24.973 164.084 24.245 164.604 23.283C165.124 22.321 165.384 21.151 165.384 19.773C165.384 17.719 164.838 16.146 163.746 15.054C162.68 13.936 161.367 13.377 159.807 13.377C158.247 13.377 156.934 13.936 155.868 15.054C154.828 16.146 154.308 17.719 154.308 19.773C154.308 21.827 154.815 23.413 155.829 24.531C156.869 25.623 158.169 26.169 159.729 26.169Z" fill="#212122"/>
<path d="M180.465 12.324C181.167 11.18 182.077 10.283 183.195 9.633C184.339 8.983 185.639 8.658 187.095 8.658V14.391H185.652C183.936 14.391 182.636 14.794 181.752 15.6C180.894 16.406 180.465 17.81 180.465 19.812V30.576H175.005V8.97H180.465V12.324Z" fill="#212122"/>
<path d="M210.857 19.305C210.857 20.085 210.805 20.787 210.701 21.411H194.906C195.036 22.971 195.582 24.193 196.544 25.077C197.506 25.961 198.689 26.403 200.093 26.403C202.121 26.403 203.564 25.532 204.422 23.79H210.311C209.687 25.87 208.491 27.586 206.723 28.938C204.955 30.264 202.784 30.927 200.21 30.927C198.13 30.927 196.258 30.472 194.594 29.562C192.956 28.626 191.669 27.313 190.733 25.623C189.823 23.933 189.368 21.983 189.368 19.773C189.368 17.537 189.823 15.574 190.733 13.884C191.643 12.194 192.917 10.894 194.555 9.984C196.193 9.074 198.078 8.619 200.21 8.619C202.264 8.619 204.097 9.061 205.709 9.945C207.347 10.829 208.608 12.09 209.492 13.728C210.402 15.34 210.857 17.199 210.857 19.305ZM205.202 17.745C205.176 16.341 204.669 15.223 203.681 14.391C202.693 13.533 201.484 13.104 200.054 13.104C198.702 13.104 197.558 13.52 196.622 14.352C195.712 15.158 195.153 16.289 194.945 17.745H205.202Z" fill="#212122"/>
<path d="M242.661 3.354V7.761H235.407V30.576H229.947V7.761H222.693V3.354H242.661Z" fill="#212122"/>
<path d="M266.73 19.305C266.73 20.085 266.678 20.787 266.574 21.411H250.779C250.909 22.971 251.455 24.193 252.417 25.077C253.379 25.961 254.562 26.403 255.966 26.403C257.994 26.403 259.437 25.532 260.295 23.79H266.184C265.56 25.87 264.364 27.586 262.596 28.938C260.828 30.264 258.657 30.927 256.083 30.927C254.003 30.927 252.131 30.472 250.467 29.562C248.829 28.626 247.542 27.313 246.606 25.623C245.696 23.933 245.241 21.983 245.241 19.773C245.241 17.537 245.696 15.574 246.606 13.884C247.516 12.194 248.79 10.894 250.428 9.984C252.066 9.074 253.951 8.619 256.083 8.619C258.137 8.619 259.97 9.061 261.582 9.945C263.22 10.829 264.481 12.09 265.365 13.728C266.275 15.34 266.73 17.199 266.73 19.305ZM261.075 17.745C261.049 16.341 260.542 15.223 259.554 14.391C258.566 13.533 257.357 13.104 255.927 13.104C254.575 13.104 253.431 13.52 252.495 14.352C251.585 15.158 251.026 16.289 250.818 17.745H261.075Z" fill="#212122"/>
<path d="M278.983 30.927C277.215 30.927 275.629 30.615 274.225 29.991C272.821 29.341 271.703 28.47 270.871 27.378C270.065 26.286 269.623 25.077 269.545 23.751H275.044C275.148 24.583 275.551 25.272 276.253 25.818C276.981 26.364 277.878 26.637 278.944 26.637C279.984 26.637 280.79 26.429 281.362 26.013C281.96 25.597 282.259 25.064 282.259 24.414C282.259 23.712 281.895 23.192 281.167 22.854C280.465 22.49 279.334 22.1 277.774 21.684C276.162 21.294 274.836 20.891 273.796 20.475C272.782 20.059 271.898 19.422 271.144 18.564C270.416 17.706 270.052 16.549 270.052 15.093C270.052 13.897 270.39 12.805 271.066 11.817C271.768 10.829 272.756 10.049 274.03 9.477C275.33 8.905 276.851 8.619 278.593 8.619C281.167 8.619 283.221 9.269 284.755 10.569C286.289 11.843 287.134 13.572 287.29 15.756H282.064C281.986 14.898 281.622 14.222 280.972 13.728C280.348 13.208 279.503 12.948 278.437 12.948C277.449 12.948 276.682 13.13 276.136 13.494C275.616 13.858 275.356 14.365 275.356 15.015C275.356 15.743 275.72 16.302 276.448 16.692C277.176 17.056 278.307 17.433 279.841 17.823C281.401 18.213 282.688 18.616 283.702 19.032C284.716 19.448 285.587 20.098 286.315 20.982C287.069 21.84 287.459 22.984 287.485 24.414C287.485 25.662 287.134 26.78 286.432 27.768C285.756 28.756 284.768 29.536 283.468 30.108C282.194 30.654 280.699 30.927 278.983 30.927Z" fill="#212122"/>
<path d="M298.324 13.455V23.907C298.324 24.635 298.493 25.168 298.831 25.506C299.195 25.818 299.793 25.974 300.625 25.974H303.16V30.576H299.728C295.126 30.576 292.825 28.34 292.825 23.868V13.455H290.251V8.97H292.825V3.627H298.324V8.97H303.16V13.455H298.324Z" fill="#212122"/>
</svg>
